<svg width="420" height="419" viewBox="0 0 420 419" fill="none" xmlns="http://www.w3.org/2000/svg">
<path fill-rule="evenodd" clip-rule="evenodd" d="M189.455 0.331633C141.132 4.66063 99.7986 21.7706 65.7246 51.5516C38.3576 75.4696 16.0327 113.494 6.03867 153.209C1.26667 172.17 0.052662 184.343 0.00266203 213.706C-0.035338 236.231 0.323668 244.53 1.71467 253.291C8.95267 298.866 26.3367 333.024 57.6867 363.265C83.1167 387.797 107.724 401.333 143.208 410.309C159.045 414.315 179.425 417.399 196.205 418.328L208.455 419.006V414.003V408.999L201.254 407.81C177.682 403.917 154.385 390.408 136.403 370.206C111.897 342.674 97.2096 303.084 90.2156 245.706C87.2806 221.631 87.0377 163.866 89.7777 141.706C95.9697 91.6196 107.87 61.1956 129.894 39.1336C149.167 19.8276 176.192 9.28463 201.874 11.0506C240.75 13.7246 275.849 39.8096 295.766 80.8326L299.955 89.4586L310.974 93.0476C334.759 100.796 354.567 112.78 371.519 129.677C392.316 150.407 404.883 174.278 410.694 204.093L412.955 215.692L416.357 215.699L419.76 215.706L419.145 198.956C416.107 116.213 378.377 53.0536 312.955 21.1916C292.962 11.4546 274.715 5.75762 251.955 2.14462C242.302 0.611622 200.014 -0.614367 189.455 0.331633ZM119.455 113.152V118.706H123.773C134.476 118.706 145.352 125.073 147.43 132.554C148.086 134.916 148.446 173.38 148.449 241.429L148.455 346.651L154.705 354.389C178.551 383.913 216.507 400.69 259.455 400.69C287.474 400.69 311.521 393.692 332.184 379.527C344.21 371.283 362.042 353.069 369.895 341.009C382.032 322.37 387.273 308.599 391.536 284.147C395.579 260.949 394.18 224.863 388.415 203.665C376.721 160.668 347.928 129.216 307.064 114.799C288.747 108.337 290.08 108.423 200.705 107.991L119.455 107.598V113.152ZM204.687 245.956L204.955 374.206L207.455 379.201C212.422 389.123 223.946 393.205 244.908 392.465C261.099 391.894 270.75 389.072 281.813 381.673C299.223 370.028 311.75 351.225 319.79 324.668C331.265 286.761 332.658 227.648 322.955 190.305C316.097 163.91 300.973 142.09 281.779 130.903C265.663 121.51 248.385 117.716 221.687 117.71L204.418 117.706L204.687 245.956Z" fill="#C6B79B"/>
</svg>
