<svg width="788" height="259" viewBox="0 0 788 259" fill="none" xmlns="http://www.w3.org/2000/svg">
<path d="M115.493 0C131.392 0 146.283 3.31142 160.187 9.91489C174.13 16.4796 186.408 25.6974 197.059 37.5682C207.69 49.4583 215.997 63.1687 222.001 78.6995C227.984 94.1915 230.986 110.729 230.986 128.274C230.986 145.896 227.984 162.473 222.001 178.003C215.997 193.495 207.69 207.186 197.059 219.057C186.408 230.889 174.13 240.107 160.187 246.71C146.283 253.333 131.392 256.625 115.493 256.625C99.6331 256.625 84.7414 253.333 70.7985 246.71C56.8557 240.107 44.5589 230.889 33.9275 219.057C23.2768 207.186 14.9692 193.495 8.98537 178.003C2.98222 162.473 0 145.896 0 128.274C0 110.729 2.98222 94.1915 8.98537 78.6995C14.9692 63.1687 23.2768 49.4583 33.9275 37.5682C44.5589 25.6974 56.8557 16.4796 70.7985 9.91489C84.7414 3.31142 99.6331 0 115.493 0ZM115.493 254.456C147.039 254.456 162.821 212.396 162.821 128.274C162.821 44.2104 147.039 2.16888 115.493 2.16888C83.9861 2.16888 68.2424 44.2104 68.2424 128.274C68.2424 212.396 83.9861 254.456 115.493 254.456Z" fill="#C6B79B"/>
<path d="M400.33 229.127C400.33 233.523 401.802 237.454 404.745 240.901C407.689 244.31 411.213 246.382 415.357 247.098V249.267L352.692 258.485H351.608C349.845 258.485 348.354 257.865 347.115 256.626C345.914 255.386 345.333 253.915 345.333 252.21V246.711C338.517 250.119 330.868 252.946 322.405 255.154C313.981 257.362 305.48 258.485 296.921 258.485C288.4 258.485 280.46 256.819 273.14 253.527C265.801 250.235 259.914 244.987 255.48 237.803C251.084 230.58 248.895 220.723 248.895 208.213V105.966C248.895 101.318 247.424 97.3483 244.48 94.0369C241.575 90.7449 238.051 88.7309 233.868 87.995V85.7487L296.611 76.6084H297.695C301.82 76.6084 303.892 78.6998 303.892 82.8827V203.101C303.892 209.201 302.285 214.158 299.09 217.973C295.933 221.749 292.757 225.235 289.562 228.43C286.405 231.587 284.837 235.479 284.837 240.127C284.837 244.058 287.199 247.176 291.963 249.499C296.766 251.823 302.691 252.985 309.779 252.985C319.074 252.985 327.072 251.707 333.792 249.112C340.492 246.536 344.346 245.007 345.333 244.542V105.966C345.333 101.318 343.862 97.3483 340.918 94.0369C338.013 90.7449 334.489 88.7309 330.306 87.995V85.7487L392.971 76.6084H394.133C398.258 76.6084 400.33 78.6998 400.33 82.8827V229.127Z" fill="#C6B79B"/>
<path d="M582.157 229.127C582.157 233.523 583.629 237.454 586.573 240.901C589.516 244.309 593.041 246.381 597.185 247.098V249.267L534.519 258.484C534.248 258.484 534.055 258.484 533.9 258.484C533.784 258.484 533.609 258.484 533.358 258.484C531.653 258.484 530.182 257.807 528.942 256.47C527.742 255.134 527.161 253.585 527.161 251.823V243.07C520.286 248.453 512.869 252.559 504.93 255.386C497.029 258.175 488.779 259.065 480.22 258.097C468.02 256.858 457.098 252.171 447.454 243.999C437.791 235.789 430.2 225.293 424.681 212.473C419.201 199.615 416.47 185.633 416.47 170.49C416.47 156.043 418.717 142.836 423.209 130.908C427.741 118.94 433.783 108.599 441.335 99.9235C448.926 91.248 457.369 84.5864 466.664 79.9388C475.96 75.2912 485.371 72.9674 494.937 72.9674C501.289 72.9674 507.331 73.7808 513.063 75.3687C518.795 76.9179 523.481 78.6801 527.161 80.636V29.3574C527.161 24.9228 525.689 20.9917 522.745 17.5834C519.802 14.1752 516.258 12.1225 512.133 11.3866V9.14029L574.799 0C575.05 0 575.225 0 575.341 0C575.496 0 575.689 0 575.961 0C580.085 0 582.157 2.20762 582.157 6.58411V229.127ZM515.077 243.07C518.737 243.07 522.765 242.102 527.161 240.126V83.1922C522.765 81.2363 518.737 80.2487 515.077 80.2487C507.021 80.2487 499.682 83.928 493.078 91.248C486.455 98.5873 481.149 108.367 477.121 120.605C473.094 132.844 471.08 146.535 471.08 161.659C471.08 176.59 473.094 190.223 477.121 202.558C481.149 214.913 486.455 224.75 493.078 232.07C499.682 239.41 507.021 243.07 515.077 243.07Z" fill="#C6B79B"/>
<path d="M736.475 207.128C737.192 216.695 734.384 225.39 728.032 233.232C721.68 241.036 713.121 247.214 702.393 251.745C691.645 256.238 679.891 258.484 667.148 258.484C654.697 258.484 643.291 256.432 632.911 252.288C622.531 248.105 614.166 242.411 607.814 235.169C601.462 227.946 598.286 219.812 598.286 210.769C598.286 202.984 601.075 196.342 606.652 190.862C612.268 185.343 618.891 182.573 626.482 182.573C634.325 182.573 641.044 185.343 646.622 190.862C652.237 196.342 655.065 202.984 655.065 210.769C655.065 217.392 653.632 222.465 650.804 226.029C648.016 229.553 645.15 232.458 642.206 234.782C639.302 237.105 637.869 239.875 637.869 243.07C637.869 245.762 639.205 248.337 641.896 250.816C644.569 253.256 647.745 254.689 651.424 255.154C653.845 255.425 656.149 255.676 658.318 255.928C660.526 256.141 663.469 256.238 667.148 256.238C673.752 256.238 679.387 253.914 684.035 249.267C688.682 244.619 691.006 239.023 691.006 232.458C691.006 226.319 688.721 220.374 684.19 214.642C679.697 208.91 673.965 203.178 666.994 197.446C660.022 191.675 652.547 185.73 644.608 179.63C636.707 173.549 629.27 167.275 622.299 160.807C615.328 154.301 609.557 147.329 605.025 139.893C600.533 132.418 598.286 124.401 598.286 115.88C598.286 106.082 601.559 97.987 608.124 91.6353C614.727 85.2836 622.783 80.5972 632.291 77.5376C641.838 74.4972 651.153 72.9674 660.255 72.9674C669.027 72.9674 676.405 73.8195 682.408 75.5236C688.392 77.2277 693.756 78.835 698.52 80.3261C703.264 81.7785 708.222 82.3788 713.392 82.1077C715.348 81.856 717.11 81.3718 718.659 80.636C720.247 79.9195 721.545 79.0674 722.532 78.0798H724.391V137.492C724.391 137.492 724.198 137.492 723.849 137.492C723.481 137.492 723.036 137.492 722.532 137.492C721.08 130.172 718.621 121.98 715.174 112.937C711.765 103.913 706.692 95.8569 699.992 88.7693C693.272 81.6429 683.919 77.3633 671.951 75.9109C665.599 74.9426 660.1 76.1433 655.452 79.5515C650.804 82.9598 648.248 88.595 647.783 96.4378C647.261 104.242 649.739 111.446 655.22 118.049C660.739 124.672 667.768 131.217 676.289 137.724C684.848 144.192 693.601 150.854 702.548 157.709C711.475 164.525 719.124 171.961 725.476 180.017C731.828 188.073 735.488 197.117 736.475 207.128Z" fill="#C6B79B"/>
<path d="M764.309 258.484C757.957 258.484 752.573 256.296 748.197 251.9C743.801 247.466 741.613 242.063 741.613 235.711C741.613 229.359 743.801 223.937 748.197 219.445C752.573 214.913 757.957 212.628 764.309 212.628C770.66 212.628 776.083 214.913 780.575 219.445C785.107 223.937 787.392 229.359 787.392 235.711C787.392 242.063 785.107 247.466 780.575 251.9C776.083 256.296 770.66 258.484 764.309 258.484Z" fill="#C6B79B"/>
</svg>
