<svg width="788" height="301" viewBox="0 0 788 301" fill="none" xmlns="http://www.w3.org/2000/svg">
<path d="M115.493 0C131.392 0 146.283 3.31142 160.187 9.91489C174.13 16.4796 186.408 25.6974 197.059 37.5682C207.69 49.4583 215.997 63.1687 222.001 78.6995C227.984 94.1915 230.986 110.729 230.986 128.274C230.986 145.896 227.984 162.473 222.001 178.003C215.997 193.495 207.69 207.186 197.059 219.057C186.408 230.889 174.13 240.107 160.187 246.71C146.283 253.333 131.392 256.625 115.493 256.625C99.6331 256.625 84.7414 253.333 70.7985 246.71C56.8557 240.107 44.5589 230.889 33.9275 219.057C23.2768 207.186 14.9692 193.495 8.98537 178.003C2.98222 162.473 0 145.896 0 128.274C0 110.729 2.98222 94.1915 8.98537 78.6995C14.9692 63.1687 23.2768 49.4583 33.9275 37.5682C44.5589 25.6974 56.8557 16.4796 70.7985 9.91489C84.7414 3.31142 99.6331 0 115.493 0ZM115.493 254.456C147.039 254.456 162.821 212.396 162.821 128.274C162.821 44.2104 147.039 2.16888 115.493 2.16888C83.9861 2.16888 68.2424 44.2104 68.2424 128.274C68.2424 212.396 83.9861 254.456 115.493 254.456Z" fill="#C6B79B"/>
<path d="M400.33 229.127C400.33 233.523 401.802 237.454 404.745 240.901C407.689 244.31 411.213 246.382 415.357 247.098V249.267L352.692 258.485H351.608C349.845 258.485 348.354 257.865 347.115 256.626C345.914 255.386 345.333 253.915 345.333 252.21V246.711C338.517 250.119 330.868 252.946 322.405 255.154C313.981 257.362 305.48 258.485 296.921 258.485C288.4 258.485 280.46 256.819 273.14 253.527C265.801 250.235 259.914 244.987 255.48 237.803C251.084 230.58 248.895 220.723 248.895 208.213V105.966C248.895 101.318 247.424 97.3483 244.48 94.0369C241.575 90.7449 238.051 88.7309 233.868 87.995V85.7487L296.611 76.6084H297.695C301.82 76.6084 303.892 78.6998 303.892 82.8827V203.101C303.892 209.201 302.285 214.158 299.09 217.973C295.933 221.749 292.757 225.235 289.562 228.43C286.405 231.587 284.837 235.479 284.837 240.127C284.837 244.058 287.199 247.176 291.963 249.499C296.766 251.823 302.691 252.985 309.779 252.985C319.074 252.985 327.072 251.707 333.792 249.112C340.492 246.536 344.346 245.007 345.333 244.542V105.966C345.333 101.318 343.862 97.3483 340.918 94.0369C338.013 90.7449 334.489 88.7309 330.306 87.995V85.7487L392.971 76.6084H394.133C398.258 76.6084 400.33 78.6998 400.33 82.8827V229.127Z" fill="#C6B79B"/>
<path d="M582.157 229.127C582.157 233.523 583.629 237.454 586.573 240.901C589.516 244.309 593.041 246.381 597.185 247.098V249.267L534.519 258.484C534.248 258.484 534.055 258.484 533.9 258.484C533.784 258.484 533.609 258.484 533.358 258.484C531.653 258.484 530.182 257.807 528.942 256.47C527.742 255.134 527.161 253.585 527.161 251.823V243.07C520.286 248.453 512.869 252.559 504.93 255.386C497.029 258.175 488.779 259.065 480.22 258.097C468.02 256.858 457.098 252.171 447.454 243.999C437.791 235.789 430.2 225.293 424.681 212.473C419.201 199.615 416.47 185.633 416.47 170.49C416.47 156.043 418.717 142.836 423.209 130.908C427.741 118.94 433.783 108.599 441.335 99.9235C448.926 91.248 457.369 84.5864 466.664 79.9388C475.96 75.2912 485.371 72.9674 494.937 72.9674C501.289 72.9674 507.331 73.7808 513.063 75.3687C518.795 76.9179 523.481 78.6801 527.161 80.636V29.3574C527.161 24.9228 525.689 20.9917 522.745 17.5834C519.802 14.1752 516.258 12.1225 512.133 11.3866V9.14029L574.799 0C575.05 0 575.225 0 575.341 0C575.496 0 575.689 0 575.961 0C580.085 0 582.157 2.20762 582.157 6.58411V229.127ZM515.077 243.07C518.737 243.07 522.765 242.102 527.161 240.126V83.1922C522.765 81.2363 518.737 80.2487 515.077 80.2487C507.021 80.2487 499.682 83.928 493.078 91.248C486.455 98.5873 481.149 108.367 477.121 120.605C473.094 132.844 471.08 146.535 471.08 161.659C471.08 176.59 473.094 190.223 477.121 202.558C481.149 214.913 486.455 224.75 493.078 232.07C499.682 239.41 507.021 243.07 515.077 243.07Z" fill="#C6B79B"/>
<path d="M736.475 207.128C737.192 216.695 734.384 225.39 728.032 233.232C721.68 241.036 713.121 247.214 702.393 251.745C691.645 256.238 679.891 258.484 667.148 258.484C654.697 258.484 643.291 256.432 632.911 252.288C622.531 248.105 614.166 242.411 607.814 235.169C601.462 227.946 598.286 219.812 598.286 210.769C598.286 202.984 601.075 196.342 606.652 190.862C612.268 185.343 618.891 182.573 626.482 182.573C634.325 182.573 641.044 185.343 646.622 190.862C652.237 196.342 655.065 202.984 655.065 210.769C655.065 217.392 653.632 222.465 650.804 226.029C648.016 229.553 645.15 232.458 642.206 234.782C639.302 237.105 637.869 239.875 637.869 243.07C637.869 245.762 639.205 248.337 641.896 250.816C644.569 253.256 647.745 254.689 651.424 255.154C653.845 255.425 656.149 255.676 658.318 255.928C660.526 256.141 663.469 256.238 667.148 256.238C673.752 256.238 679.387 253.914 684.035 249.267C688.682 244.619 691.006 239.023 691.006 232.458C691.006 226.319 688.721 220.374 684.19 214.642C679.697 208.91 673.965 203.178 666.994 197.446C660.022 191.675 652.547 185.73 644.608 179.63C636.707 173.549 629.27 167.275 622.299 160.807C615.328 154.301 609.557 147.329 605.025 139.893C600.533 132.418 598.286 124.401 598.286 115.88C598.286 106.082 601.559 97.987 608.124 91.6353C614.727 85.2836 622.783 80.5972 632.291 77.5376C641.838 74.4972 651.153 72.9674 660.255 72.9674C669.027 72.9674 676.405 73.8195 682.408 75.5236C688.392 77.2277 693.756 78.835 698.52 80.3261C703.264 81.7785 708.222 82.3788 713.392 82.1077C715.348 81.856 717.11 81.3718 718.659 80.636C720.247 79.9195 721.545 79.0674 722.532 78.0798H724.391V137.492C724.391 137.492 724.198 137.492 723.849 137.492C723.481 137.492 723.036 137.492 722.532 137.492C721.08 130.172 718.621 121.98 715.174 112.937C711.765 103.913 706.692 95.8569 699.992 88.7693C693.272 81.6429 683.919 77.3633 671.951 75.9109C665.599 74.9426 660.1 76.1433 655.452 79.5515C650.804 82.9598 648.248 88.595 647.783 96.4378C647.261 104.242 649.739 111.446 655.22 118.049C660.739 124.672 667.768 131.217 676.289 137.724C684.848 144.192 693.601 150.854 702.548 157.709C711.475 164.525 719.124 171.961 725.476 180.017C731.828 188.073 735.488 197.117 736.475 207.128Z" fill="#C6B79B"/>
<path d="M764.309 258.484C757.957 258.484 752.573 256.296 748.197 251.9C743.801 247.466 741.613 242.063 741.613 235.711C741.613 229.359 743.801 223.937 748.197 219.445C752.573 214.913 757.957 212.628 764.309 212.628C770.66 212.628 776.083 214.913 780.575 219.445C785.107 223.937 787.392 229.359 787.392 235.711C787.392 242.063 785.107 247.466 780.575 251.9C776.083 256.296 770.66 258.484 764.309 258.484Z" fill="#C6B79B"/>
<path d="M60.3736 301C57.9917 301 55.8422 300.516 53.9444 299.528C52.0854 298.502 50.6136 297.107 49.5292 295.345C48.4835 293.544 47.98 291.53 47.98 289.303C47.98 287.134 48.4835 285.179 49.5292 283.416C50.6136 281.615 52.0854 280.221 53.9444 279.234C55.8422 278.207 57.9917 277.684 60.3736 277.684C62.6974 277.684 64.7888 278.207 66.6479 279.234C68.5069 280.221 69.9786 281.615 71.0631 283.416C72.1475 285.179 72.6898 287.134 72.6898 289.303C72.6898 291.53 72.1475 293.544 71.0631 295.345C69.9786 297.107 68.5069 298.502 66.6479 299.528C64.7888 300.516 62.6974 301 60.3736 301ZM60.3736 296.585C61.6517 296.585 62.8523 296.275 63.9368 295.655C65.0212 295.035 65.8733 294.183 66.4929 293.099C67.1126 291.976 67.4225 290.698 67.4225 289.303C67.4225 287.909 67.1126 286.67 66.4929 285.585C65.8733 284.501 65.0212 283.649 63.9368 283.029C62.8523 282.409 61.6517 282.1 60.3736 282.1C59.018 282.1 57.8174 282.409 56.733 283.029C55.6485 283.649 54.7965 284.501 54.1768 285.585C53.5571 286.67 53.2473 287.909 53.2473 289.303C53.2473 290.698 53.5571 291.976 54.1768 293.099C54.7965 294.183 55.6485 295.035 56.733 295.655C57.8174 296.275 59.018 296.585 60.3736 296.585Z" fill="white"/>
<path d="M98.0408 301C94.8262 301 92.3281 300.129 90.5271 298.366C88.7068 296.565 87.816 294.009 87.816 290.698V278.072H93.0059V290.465C93.0059 294.551 94.6713 296.585 98.0408 296.585C99.6868 296.585 100.926 296.101 101.759 295.113C102.63 294.145 103.076 292.596 103.076 290.465V278.072H108.266V290.698C108.266 294.009 107.355 296.565 105.554 298.366C103.734 300.129 101.236 301 98.0408 301Z" fill="white"/>
<path d="M124.84 278.072H135.065C137.485 278.072 139.635 278.537 141.494 279.466C143.392 280.396 144.863 281.712 145.909 283.417C146.935 285.121 147.458 287.096 147.458 289.303C147.458 291.589 146.935 293.564 145.909 295.268C144.863 296.972 143.392 298.289 141.494 299.218C139.635 300.148 137.485 300.613 135.065 300.613H124.84V278.072ZM134.755 296.352C137.02 296.352 138.821 295.733 140.177 294.493C141.513 293.215 142.191 291.472 142.191 289.303C142.191 287.193 141.513 285.508 140.177 284.269C138.821 282.99 137.02 282.332 134.755 282.332H130.03V296.352H134.755Z" fill="white"/>
<path d="M170.215 301C168.453 301 166.729 300.767 165.025 300.303C163.36 299.799 162.043 299.141 161.075 298.366L162.856 294.493C163.786 295.171 164.909 295.733 166.265 296.197C167.601 296.623 168.937 296.817 170.293 296.817C171.726 296.817 172.81 296.623 173.546 296.197C174.262 295.733 174.63 295.152 174.63 294.416C174.63 293.854 174.417 293.409 174.011 293.099C173.585 292.75 173.042 292.46 172.384 292.247C171.706 291.995 170.835 291.743 169.75 291.472C167.988 291.066 166.574 290.678 165.49 290.31C164.406 289.904 163.437 289.265 162.624 288.374C161.849 287.444 161.462 286.205 161.462 284.656C161.462 283.378 161.811 282.216 162.547 281.17C163.263 280.086 164.328 279.234 165.722 278.614C167.155 277.994 168.918 277.684 170.99 277.684C172.423 277.684 173.817 277.878 175.173 278.227C176.567 278.536 177.767 279.04 178.813 279.698L177.187 283.649C175.114 282.467 173.042 281.867 170.99 281.867C169.479 281.867 168.375 282.1 167.659 282.564C166.981 283.029 166.652 283.649 166.652 284.423C166.652 285.198 167.059 285.798 167.891 286.205C168.705 286.573 169.944 286.941 171.609 287.289C173.314 287.715 174.708 288.122 175.792 288.529C176.877 288.897 177.806 289.536 178.581 290.465C179.394 291.356 179.82 292.537 179.82 294.028C179.82 295.326 179.452 296.507 178.736 297.592C178 298.637 176.915 299.451 175.482 300.07C174.03 300.69 172.268 301 170.215 301Z" fill="white"/>
<path d="M215.493 278.072V300.613H210.225V291.395H200.001V300.613H194.811V278.072H200.001V286.98H210.225V278.072H215.493Z" fill="white"/>
<path d="M243.169 301C240.787 301 238.638 300.516 236.74 299.528C234.881 298.502 233.409 297.107 232.325 295.345C231.279 293.544 230.776 291.53 230.776 289.303C230.776 287.134 231.279 285.179 232.325 283.416C233.409 281.615 234.881 280.221 236.74 279.234C238.638 278.207 240.787 277.684 243.169 277.684C245.493 277.684 247.584 278.207 249.443 279.234C251.302 280.221 252.774 281.615 253.859 283.416C254.943 285.179 255.485 287.134 255.485 289.303C255.485 291.53 254.943 293.544 253.859 295.345C252.774 297.107 251.302 298.502 249.443 299.528C247.584 300.516 245.493 301 243.169 301ZM243.169 296.585C244.447 296.585 245.648 296.275 246.732 295.655C247.817 295.035 248.669 294.183 249.288 293.099C249.908 291.976 250.218 290.698 250.218 289.303C250.218 287.909 249.908 286.67 249.288 285.585C248.669 284.501 247.817 283.649 246.732 283.029C245.648 282.409 244.447 282.1 243.169 282.1C241.814 282.1 240.613 282.409 239.529 283.029C238.444 283.649 237.592 284.501 236.972 285.585C236.353 286.67 236.043 287.909 236.043 289.303C236.043 290.698 236.353 291.976 236.972 293.099C237.592 294.183 238.444 295.035 239.529 295.655C240.613 296.275 241.814 296.585 243.169 296.585Z" fill="white"/>
<path d="M281.766 301C279.384 301 277.235 300.516 275.337 299.528C273.478 298.502 272.006 297.107 270.922 295.345C269.876 293.544 269.372 291.53 269.372 289.303C269.372 287.134 269.876 285.179 270.922 283.416C272.006 281.615 273.478 280.221 275.337 279.234C277.235 278.207 279.384 277.684 281.766 277.684C284.09 277.684 286.181 278.207 288.04 279.234C289.899 280.221 291.371 281.615 292.455 283.416C293.54 285.179 294.082 287.134 294.082 289.303C294.082 291.53 293.54 293.544 292.455 295.345C291.371 297.107 289.899 298.502 288.04 299.528C286.181 300.516 284.09 301 281.766 301ZM281.766 296.585C283.044 296.585 284.245 296.275 285.329 295.655C286.414 295.035 287.266 294.183 287.885 293.099C288.505 291.976 288.815 290.698 288.815 289.303C288.815 287.909 288.505 286.67 287.885 285.585C287.266 284.501 286.414 283.649 285.329 283.029C284.245 282.409 283.044 282.1 281.766 282.1C280.41 282.1 279.21 282.409 278.125 283.029C277.041 283.649 276.189 284.501 275.569 285.585C274.949 286.67 274.64 287.909 274.64 289.303C274.64 290.698 274.949 291.976 275.569 293.099C276.189 294.183 277.041 295.035 278.125 295.655C279.21 296.275 280.41 296.585 281.766 296.585Z" fill="white"/>
<path d="M323.771 300.613L319.433 294.338H314.631V300.613H309.441V278.072H319.201C321.157 278.072 322.861 278.42 324.313 279.079C325.804 279.757 326.947 280.705 327.722 281.945C328.535 283.145 328.961 284.559 328.961 286.205C328.961 287.909 328.535 289.381 327.722 290.62C326.947 291.821 325.804 292.712 324.313 293.331L329.348 300.613H323.771ZM323.694 286.205C323.694 284.966 323.268 284.017 322.454 283.339C321.622 282.681 320.44 282.332 318.891 282.332H314.631V290.156H318.891C320.44 290.156 321.622 289.826 322.454 289.149C323.268 288.49 323.694 287.503 323.694 286.205Z" fill="white"/>
<path d="M365.205 278.072V300.613H360.867L349.636 286.902V300.613H344.523V278.072H348.783L360.015 291.782V278.072H365.205Z" fill="white"/>
<path d="M380.952 289.536H390.015V293.564H380.952V289.536Z" fill="white"/>
<path d="M405.789 278.072H416.013C418.434 278.072 420.583 278.537 422.442 279.466C424.34 280.396 425.812 281.712 426.858 283.417C427.884 285.121 428.407 287.096 428.407 289.303C428.407 291.589 427.884 293.564 426.858 295.268C425.812 296.972 424.34 298.289 422.442 299.218C420.583 300.148 418.434 300.613 416.013 300.613H405.789V278.072ZM415.703 296.352C417.969 296.352 419.77 295.733 421.126 294.493C422.462 293.215 423.14 291.472 423.14 289.303C423.14 287.193 422.462 285.508 421.126 284.269C419.77 282.99 417.969 282.332 415.703 282.332H410.978V296.352H415.703Z" fill="white"/>
<path d="M461.234 296.43V300.613H443.805V278.072H460.846V282.255H448.995V287.135H459.452V291.24H448.995V296.43H461.234Z" fill="white"/>
<path d="M498.435 278.072L488.675 300.613H483.563L473.803 278.072H479.457L486.351 294.183L493.323 278.072H498.435Z" fill="white"/>
<path d="M529.689 296.43V300.613H512.26V278.072H529.302V282.255H517.45V287.135H527.907V291.24H517.45V296.43H529.689Z" fill="white"/>
<path d="M545.279 278.072H550.469V296.352H561.778V300.613H545.279V278.072Z" fill="white"/>
<path d="M587.059 301C584.678 301 582.528 300.516 580.63 299.528C578.771 298.502 577.299 297.107 576.215 295.345C575.169 293.544 574.666 291.53 574.666 289.303C574.666 287.134 575.169 285.179 576.215 283.416C577.299 281.615 578.771 280.221 580.63 279.234C582.528 278.207 584.678 277.684 587.059 277.684C589.383 277.684 591.475 278.207 593.334 279.234C595.193 280.221 596.665 281.615 597.749 283.416C598.833 285.179 599.376 287.134 599.376 289.303C599.376 291.53 598.833 293.544 597.749 295.345C596.665 297.107 595.193 298.502 593.334 299.528C591.475 300.516 589.383 301 587.059 301ZM587.059 296.585C588.338 296.585 589.538 296.275 590.623 295.655C591.707 295.035 592.559 294.183 593.179 293.099C593.798 291.976 594.108 290.698 594.108 289.303C594.108 287.909 593.798 286.67 593.179 285.585C592.559 284.501 591.707 283.649 590.623 283.029C589.538 282.409 588.338 282.1 587.059 282.1C585.704 282.1 584.503 282.409 583.419 283.029C582.334 283.649 581.482 284.501 580.863 285.585C580.243 286.67 579.933 287.909 579.933 289.303C579.933 290.698 580.243 291.976 580.863 293.099C581.482 294.183 582.334 295.035 583.419 295.655C584.503 296.275 585.704 296.585 587.059 296.585Z" fill="white"/>
<path d="M624.495 278.072C626.45 278.072 628.155 278.42 629.607 279.079C631.098 279.757 632.241 280.705 633.015 281.945C633.828 283.145 634.255 284.559 634.255 286.205C634.255 287.87 633.828 289.303 633.015 290.543C632.241 291.782 631.098 292.75 629.607 293.409C628.155 294.087 626.45 294.416 624.495 294.416H619.924V300.613H614.735V278.072H624.495ZM624.185 290.156C625.734 290.156 626.915 289.826 627.748 289.149C628.561 288.49 628.987 287.503 628.987 286.205C628.987 284.966 628.561 284.017 627.748 283.339C626.915 282.681 625.734 282.332 624.185 282.332H619.924V290.156H624.185Z" fill="white"/>
<path d="M670.247 300.613L670.17 287.057L663.508 298.211H661.184L654.6 287.367V300.613H649.72V278.072H653.98L662.423 292.092L670.789 278.072H675.049L675.127 300.613H670.247Z" fill="white"/>
<path d="M709.325 296.43V300.613H691.896V278.072H708.937V282.255H697.086V287.135H707.543V291.24H697.086V296.43H709.325Z" fill="white"/>
<path d="M745.596 278.072V300.613H741.259L730.027 286.902V300.613H724.914V278.072H729.175L740.407 291.782V278.072H745.596Z" fill="white"/>
<path d="M766.999 282.332H759.795V278.072H779.392V282.332H772.188V300.613H766.999V282.332Z" fill="white"/>
</svg>
